<?xml version="1.0" encoding="UTF-8"?>
<svg width="80px" height="80px" viewBox="0 0 80 80" version="1.1" xmlns="http://www.w3.org/2000/svg" xmlns:xlink="http://www.w3.org/1999/xlink">
    <!-- Generator: Sketch 49 (51002) - http://www.bohemiancoding.com/sketch -->
    <title>MicrochipIcon/Board/Blue-no checkmark Copy</title>
    <desc>Created with Sketch.</desc>
    <defs>
        <circle id="path-1" cx="32" cy="32" r="32"></circle>
        <filter x="-10.9%" y="-7.8%" width="121.9%" height="121.9%" filterUnits="objectBoundingBox" id="filter-2">
            <feOffset dx="0" dy="2" in="SourceAlpha" result="shadowOffsetOuter1"></feOffset>
            <feGaussianBlur stdDeviation="2" in="shadowOffsetOuter1" result="shadowBlurOuter1"></feGaussianBlur>
            <feColorMatrix values="0 0 0 0 0   0 0 0 0 0   0 0 0 0 0  0 0 0 0.5 0" type="matrix" in="shadowBlurOuter1"></feColorMatrix>
        </filter>
    </defs>
    <g id="MicrochipIcon/Board/Blue-no-checkmark-Copy" stroke="none" stroke-width="1" fill="none" fill-rule="evenodd">
        <g id="Group-5" transform="translate(8.000000, 8.000000)">
            <g id="Oval-2">
                <use fill="black" fill-opacity="1" filter="url(#filter-2)" xlink:href="#path-1"></use>
                <use fill="#FFFFFF" fill-rule="evenodd" xlink:href="#path-1"></use>
            </g>
            <g id="Icon/Board/Inactive" transform="translate(15.000000, 21.000000)" fill="#9B9B9B">
                <g id="noun_1087152_cc">
                    <path d="M1.97674419,0 C0.888466335,0 0,0.833674694 0,1.85483871 L0,21.1451613 C0,22.1663253 0.888466335,23 1.97674419,23 L32.0232558,23 C33.1115337,23 34,22.1663253 34,21.1451613 L34,1.85483871 C34,0.833674694 33.1115337,0 32.0232558,0 L1.97674419,0 Z M1.97674419,0.741935484 L32.0232558,0.741935484 C32.6871639,0.741935484 33.2093023,1.23187369 33.2093023,1.85483871 L33.2093023,21.1451613 C33.2093023,21.7681263 32.6871639,22.2580645 32.0232558,22.2580645 L1.97674419,22.2580645 C1.31283607,22.2580645 0.790697674,21.7681263 0.790697674,21.1451613 L0.790697674,1.85483871 C0.790697674,1.23187369 1.31283607,0.741935484 1.97674419,0.741935484 Z M4.34883721,2.59677419 C3.48013879,2.59677419 2.76744186,3.26551997 2.76744186,4.08064516 C2.76744186,4.89577035 3.48013879,5.56451613 4.34883721,5.56451613 C5.21753602,5.56451613 5.93023256,4.89577035 5.93023256,4.08064516 C5.93023256,3.26551997 5.21753602,2.59677419 4.34883721,2.59677419 Z M24.1162791,2.59677419 C23.3836186,2.59677419 22.7734036,3.07167152 22.596657,3.70967742 L20.1627907,3.70967742 C20.1504428,3.70913377 20.1380746,3.70913377 20.1257267,3.70967742 C20.0187398,3.71945204 19.9206056,3.76967877 19.8539244,3.84879032 L12.1322674,12.5897177 C12.1278627,12.5973088 12.1237419,12.6050421 12.1199128,12.6129032 L5.8684593,12.6129032 C5.69171267,11.9748973 5.08149767,11.5 4.34883721,11.5 C3.48013879,11.5 2.76744186,12.1687458 2.76744186,12.983871 C2.76744186,13.7989962 3.48013879,14.4677419 4.34883721,14.4677419 C5.08149767,14.4677419 5.69171267,13.9928446 5.8684593,13.3548387 L16.2710756,13.3548387 C16.4478222,13.9928446 17.0580372,14.4677419 17.7906977,14.4677419 C18.6593961,14.4677419 19.372093,13.7989962 19.372093,12.983871 C19.372093,12.1687458 18.6593961,11.5 17.7906977,11.5 C17.0580372,11.5 16.4478222,11.9748973 16.2710756,12.6129032 L13.1329942,12.6129032 L20.3481105,4.4516129 L22.596657,4.4516129 C22.7734036,5.08961881 23.3836186,5.56451613 24.1162791,5.56451613 C24.9849775,5.56451613 25.6976744,4.89577035 25.6976744,4.08064516 C25.6976744,3.26551997 24.9849775,2.59677419 24.1162791,2.59677419 Z M29.6511628,2.59677419 C28.782464,2.59677419 28.0697674,3.26551997 28.0697674,4.08064516 C28.0697674,4.89577035 28.782464,5.56451613 29.6511628,5.56451613 C30.5198612,5.56451613 31.2325581,4.89577035 31.2325581,4.08064516 C31.2325581,3.26551997 30.5198612,2.59677419 29.6511628,2.59677419 Z M4.34883721,3.33870968 C4.79021137,3.33870968 5.13953488,3.66649158 5.13953488,4.08064516 C5.13953488,4.49479874 4.79021137,4.82258065 4.34883721,4.82258065 C3.90746344,4.82258065 3.55813953,4.49479874 3.55813953,4.08064516 C3.55813953,3.66649158 3.90746344,3.33870968 4.34883721,3.33870968 Z M24.1162791,3.33870968 C24.5576528,3.33870968 24.9069767,3.66649158 24.9069767,4.08064516 C24.9069767,4.49479874 24.5576528,4.82258065 24.1162791,4.82258065 C23.6749049,4.82258065 23.3255814,4.49479874 23.3255814,4.08064516 C23.3255814,3.66649158 23.6749049,3.33870968 24.1162791,3.33870968 Z M29.6511628,3.33870968 C30.0925366,3.33870968 30.4418605,3.66649158 30.4418605,4.08064516 C30.4418605,4.49479874 30.0925366,4.82258065 29.6511628,4.82258065 C29.2097886,4.82258065 28.8604651,4.49479874 28.8604651,4.08064516 C28.8604651,3.66649158 29.2097886,3.33870968 29.6511628,3.33870968 Z M10.2420058,3.69808468 C10.2252845,3.70094818 10.2087774,3.70482046 10.1925872,3.70967742 C10.0085015,3.74836129 9.87917992,3.90368463 9.88372093,4.08064516 L9.88372093,7.47731855 C9.203783,7.64316561 8.69767442,8.21574913 8.69767442,8.90322581 C8.69767442,9.718351 9.41037135,10.3870968 10.2790698,10.3870968 C11.1477686,10.3870968 11.8604651,9.718351 11.8604651,8.90322581 C11.8604651,8.21574913 11.3543565,7.64316561 10.6744186,7.47731855 L10.6744186,4.08064516 C10.67847,3.97393044 10.6333224,3.87075207 10.5505224,3.79749796 C10.4677224,3.72424385 10.3552994,3.68801781 10.2420058,3.69808468 Z M10.2790698,8.16129032 C10.7204439,8.16129032 11.0697674,8.48907223 11.0697674,8.90322581 C11.0697674,9.31737939 10.7204439,9.64516129 10.2790698,9.64516129 C9.837696,9.64516129 9.48837209,9.31737939 9.48837209,8.90322581 C9.48837209,8.48907223 9.837696,8.16129032 10.2790698,8.16129032 Z M21.744186,8.16129032 C20.8754872,8.16129032 20.1627907,8.8300361 20.1627907,9.64516129 C20.1627907,10.4602865 20.8754872,11.1290323 21.744186,11.1290323 C21.9297399,11.1290323 22.1095425,11.0922226 22.275436,11.0362903 L23.9556686,13.2041331 C24.0308491,13.2997318 24.1502758,13.3557627 24.2768895,13.3548387 L28.0697674,13.3548387 C28.0906544,13.3525223 28.111311,13.3486457 28.1315407,13.343246 C28.3041891,13.9867307 28.9143326,14.4677419 29.6511628,14.4677419 C30.5198612,14.4677419 31.2325581,13.7989962 31.2325581,12.983871 C31.2325581,12.1687458 30.5198612,11.5 29.6511628,11.5 C28.9185023,11.5 28.3082873,11.9748973 28.1315407,12.6129032 C28.1109811,12.6113916 28.090327,12.6113916 28.0697674,12.6129032 L24.4869186,12.6129032 L22.9302326,10.6073589 C23.1715614,10.3466049 23.3255814,10.0149071 23.3255814,9.64516129 C23.3255814,8.8300361 22.6128845,8.16129032 21.744186,8.16129032 Z M21.744186,8.90322581 C22.1855598,8.90322581 22.5348837,9.23100771 22.5348837,9.64516129 C22.5348837,10.0593149 22.1855598,10.3870968 21.744186,10.3870968 C21.3028119,10.3870968 20.9534884,10.0593149 20.9534884,9.64516129 C20.9534884,9.23100771 21.3028119,8.90322581 21.744186,8.90322581 Z M4.34883721,12.2419355 C4.79021137,12.2419355 5.13953488,12.5697174 5.13953488,12.983871 C5.13953488,13.3980245 4.79021137,13.7258065 4.34883721,13.7258065 C3.90746344,13.7258065 3.55813953,13.3980245 3.55813953,12.983871 C3.55813953,12.5697174 3.90746344,12.2419355 4.34883721,12.2419355 Z M17.7906977,12.2419355 C18.2320714,12.2419355 18.5813953,12.5697174 18.5813953,12.983871 C18.5813953,13.3980245 18.2320714,13.7258065 17.7906977,13.7258065 C17.3493235,13.7258065 17,13.3980245 17,12.983871 C17,12.5697174 17.3493235,12.2419355 17.7906977,12.2419355 Z M29.6511628,12.2419355 C30.0925366,12.2419355 30.4418605,12.5697174 30.4418605,12.983871 C30.4418605,13.3980245 30.0925366,13.7258065 29.6511628,13.7258065 C29.2097886,13.7258065 28.8604651,13.3980245 28.8604651,12.983871 C28.8604651,12.5697174 29.2097886,12.2419355 29.6511628,12.2419355 Z M15.3815407,15.9400202 C15.3648194,15.9428837 15.3483123,15.9467559 15.3321221,15.9516129 C15.1480364,15.9902968 15.0187148,16.1456201 15.0232558,16.3225806 L15.0232558,18.5483871 L11.403343,18.5483871 C11.2265964,17.9103812 10.6163814,17.4354839 9.88372093,17.4354839 C9.01502251,17.4354839 8.30232558,18.1042296 8.30232558,18.9193548 C8.30232558,19.73448 9.01502251,20.4032258 9.88372093,20.4032258 C10.6163814,20.4032258 11.2265964,19.9283285 11.403343,19.2903226 L19.4338663,19.2903226 C19.6106129,19.9283285 20.2208283,20.4032258 20.9534884,20.4032258 C21.8221872,20.4032258 22.5348837,19.73448 22.5348837,18.9193548 C22.5348837,18.1042296 21.8221872,17.4354839 20.9534884,17.4354839 C20.2208283,17.4354839 19.6106129,17.9103812 19.4338663,18.5483871 L15.8139535,18.5483871 L15.8139535,16.3225806 C15.8180049,16.2158659 15.7728573,16.1126876 15.6900573,16.0394334 C15.6072573,15.9661793 15.4948343,15.9299533 15.3815407,15.9400202 Z M4.34883721,17.4354839 C3.48013879,17.4354839 2.76744186,18.1042296 2.76744186,18.9193548 C2.76744186,19.73448 3.48013879,20.4032258 4.34883721,20.4032258 C5.21753602,20.4032258 5.93023256,19.73448 5.93023256,18.9193548 C5.93023256,18.1042296 5.21753602,17.4354839 4.34883721,17.4354839 Z M29.6511628,17.4354839 C28.782464,17.4354839 28.0697674,18.1042296 28.0697674,18.9193548 C28.0697674,19.73448 28.782464,20.4032258 29.6511628,20.4032258 C30.5198612,20.4032258 31.2325581,19.73448 31.2325581,18.9193548 C31.2325581,18.1042296 30.5198612,17.4354839 29.6511628,17.4354839 Z M4.34883721,18.1774194 C4.79021137,18.1774194 5.13953488,18.5052013 5.13953488,18.9193548 C5.13953488,19.3335084 4.79021137,19.6612903 4.34883721,19.6612903 C3.90746344,19.6612903 3.55813953,19.3335084 3.55813953,18.9193548 C3.55813953,18.5052013 3.90746344,18.1774194 4.34883721,18.1774194 Z M9.88372093,18.1774194 C10.3250951,18.1774194 10.6744186,18.5052013 10.6744186,18.9193548 C10.6744186,19.3335084 10.3250951,19.6612903 9.88372093,19.6612903 C9.44234716,19.6612903 9.09302326,19.3335084 9.09302326,18.9193548 C9.09302326,18.5052013 9.44234716,18.1774194 9.88372093,18.1774194 Z M20.9534884,18.1774194 C21.3948625,18.1774194 21.744186,18.5052013 21.744186,18.9193548 C21.744186,19.3335084 21.3948625,19.6612903 20.9534884,19.6612903 C20.5121146,19.6612903 20.1627907,19.3335084 20.1627907,18.9193548 C20.1627907,18.5052013 20.5121146,18.1774194 20.9534884,18.1774194 Z M29.6511628,18.1774194 C30.0925366,18.1774194 30.4418605,18.5052013 30.4418605,18.9193548 C30.4418605,19.3335084 30.0925366,19.6612903 29.6511628,19.6612903 C29.2097886,19.6612903 28.8604651,19.3335084 28.8604651,18.9193548 C28.8604651,18.5052013 29.2097886,18.1774194 29.6511628,18.1774194 Z" id="Shape" fill-rule="nonzero"></path>
                </g>
            </g>
        </g>
        <circle id="Verification-outline" stroke="#9B9B9B" stroke-width="5" opacity="0.64673913" cx="40" cy="40" r="32"></circle>
    </g>
</svg>