<?xml version="1.0" encoding="UTF-8"?>
<svg width="80px" height="80px" viewBox="0 0 80 80" version="1.1" xmlns="http://www.w3.org/2000/svg" xmlns:xlink="http://www.w3.org/1999/xlink">
    <!-- Generator: Sketch 49 (51002) - http://www.bohemiancoding.com/sketch -->
    <title>MicrochipIcon/Chart/ Blue-no checkmark</title>
    <desc>Created with Sketch.</desc>
    <defs>
        <circle id="path-1" cx="32" cy="32" r="32"></circle>
        <filter x="-10.9%" y="-7.8%" width="121.9%" height="121.9%" filterUnits="objectBoundingBox" id="filter-2">
            <feOffset dx="0" dy="2" in="SourceAlpha" result="shadowOffsetOuter1"></feOffset>
            <feGaussianBlur stdDeviation="2" in="shadowOffsetOuter1" result="shadowBlurOuter1"></feGaussianBlur>
            <feColorMatrix values="0 0 0 0 0   0 0 0 0 0   0 0 0 0 0  0 0 0 0.5 0" type="matrix" in="shadowBlurOuter1"></feColorMatrix>
        </filter>
    </defs>
    <g id="MicrochipIcon/Chart/-Blue-no-checkmark" stroke="none" stroke-width="1" fill="none" fill-rule="evenodd">
        <g id="Group-3" transform="translate(8.000000, 8.000000)">
            <g id="Oval-2">
                <use fill="black" fill-opacity="1" filter="url(#filter-2)" xlink:href="#path-1"></use>
                <use fill="#FFFFFF" fill-rule="evenodd" xlink:href="#path-1"></use>
            </g>
            <g id="Icon/Graph/Red" transform="translate(13.000000, 20.000000)" fill="#4285F4">
                <g id="noun_136073_cc">
                    <g id="Group" fill-rule="nonzero">
                        <path d="M2.70569048,15.5174737 C3.95516667,15.5174737 4.96804762,14.5751579 4.96804762,13.4122105 C4.96804762,13.2425263 4.94045238,13.0795789 4.90019048,12.9216842 L12.2233333,8.82442105 C12.6223333,9.15242105 13.1403095,9.35831579 13.7148333,9.35831579 C14.4060714,9.35831579 15.0176905,9.06357895 15.4325238,8.60842105 L22.482881,11.3612632 C22.4765476,11.4244211 22.4620714,11.4854737 22.4620714,11.5507368 C22.4620714,12.7136842 23.4745,13.6564211 24.7235238,13.6564211 C25.973,13.6564211 26.985881,12.7136842 26.985881,11.5507368 C26.985881,11.24 26.9089762,10.9469474 26.7786905,10.6816842 L34.5890476,4.14694737 C34.925619,4.33178947 35.3137619,4.44547368 35.7326667,4.44547368 C36.9821429,4.44547368 37.9945714,3.50273684 37.9945714,2.33978947 C37.9945714,1.17726316 36.9821429,0.234947368 35.7326667,0.234947368 C34.4831905,0.234947368 33.4707619,1.17726316 33.4707619,2.33978947 C33.4707619,2.65094737 33.548119,2.944 33.6784048,3.21010526 L25.8675952,9.74484211 C25.5310238,9.56 25.142881,9.44631579 24.7235238,9.44631579 C24.0322857,9.44631579 23.421119,9.74105263 23.0062857,10.1957895 L15.956381,7.44294737 C15.9627143,7.37936842 15.9767381,7.31789474 15.9767381,7.25263158 C15.9767381,6.08968421 14.9638571,5.14736842 13.7148333,5.14736842 C12.4658095,5.14736842 11.4529286,6.08968421 11.4529286,7.25263158 C11.4529286,7.42231579 11.4805238,7.58526316 11.5207857,7.74315789 L4.19719048,11.8404211 C3.79819048,11.5124211 3.2797619,11.3065263 2.7052381,11.3065263 C1.45621429,11.3065263 0.443785714,12.2488421 0.443785714,13.4117895 C0.443785714,14.5747368 1.45666667,15.5174737 2.70569048,15.5174737 Z" id="Shape"></path>
                        <path d="M35.7335714,13.2357895 C34.4836429,13.2357895 33.4707619,14.1781053 33.4707619,15.3410526 C33.4707619,15.5107368 33.4983571,15.6736842 33.538619,15.8315789 L26.2154762,19.9288421 C25.8160238,19.6008421 25.2985,19.3949474 24.7239762,19.3949474 C24.0264048,19.3949474 23.4107143,19.6947368 22.995881,20.1566316 L15.9572857,17.4644211 C15.9627143,17.4058947 15.9762857,17.3494737 15.9762857,17.2896842 C15.9762857,16.1267368 14.9638571,15.1844211 13.7148333,15.1844211 C12.5454286,15.1844211 11.5940714,16.0134737 11.476,17.0724211 L4.67219048,18.3738947 C4.28540476,17.7301053 3.55435714,17.2896842 2.70569048,17.2896842 C1.45621429,17.2896842 0.443785714,18.232 0.443785714,19.3949474 C0.443785714,20.5578947 1.45666667,21.5002105 2.70569048,21.5002105 C3.87509524,21.5002105 4.826,20.6707368 4.94407143,19.6117895 L11.747881,18.3103158 C12.1346667,18.9541053 12.8661667,19.3945263 13.7152857,19.3945263 C14.4124048,19.3945263 15.0280952,19.0947368 15.4429286,18.6328421 L22.4810714,21.3250526 C22.4756429,21.384 22.4620714,21.44 22.4620714,21.5002105 C22.4620714,22.6631579 23.4749524,23.6054737 24.7244286,23.6054737 C25.9734524,23.6054737 26.985881,22.6631579 26.985881,21.5002105 C26.985881,21.3305263 26.9582857,21.1675789 26.9180238,21.0096842 L34.2411667,16.9124211 C34.640619,17.2404211 35.1585952,17.4463158 35.7335714,17.4463158 C36.9821429,17.4463158 37.9945714,16.504 37.9945714,15.3410526 C37.9945714,14.1781053 36.9821429,13.2357895 35.7335714,13.2357895 Z" id="Shape"></path>
                    </g>
                </g>
            </g>
            <circle id="Verification-outline-Copy-3" stroke="#3473FF" stroke-width="5" opacity="0.64673913" cx="32" cy="32" r="32"></circle>
        </g>
    </g>
</svg>