<?xml version="1.0" encoding="UTF-8"?>
<svg width="80px" height="80px" viewBox="0 0 80 80" version="1.1" xmlns="http://www.w3.org/2000/svg" xmlns:xlink="http://www.w3.org/1999/xlink">
    <!-- Generator: Sketch 49 (51002) - http://www.bohemiancoding.com/sketch -->
    <title>MicrochipIcon/Wifi/Blue-no checkmark Copy</title>
    <desc>Created with Sketch.</desc>
    <defs>
        <circle id="path-1" cx="32" cy="32" r="32"></circle>
        <filter x="-10.9%" y="-7.8%" width="121.9%" height="121.9%" filterUnits="objectBoundingBox" id="filter-2">
            <feOffset dx="0" dy="2" in="SourceAlpha" result="shadowOffsetOuter1"></feOffset>
            <feGaussianBlur stdDeviation="2" in="shadowOffsetOuter1" result="shadowBlurOuter1"></feGaussianBlur>
            <feColorMatrix values="0 0 0 0 0   0 0 0 0 0   0 0 0 0 0  0 0 0 0.5 0" type="matrix" in="shadowBlurOuter1"></feColorMatrix>
        </filter>
    </defs>
    <g id="MicrochipIcon/Wifi/Blue-no-checkmark-Copy" stroke="none" stroke-width="1" fill="none" fill-rule="evenodd">
        <g id="Group-4" transform="translate(8.000000, 8.000000)">
            <g id="Oval-2">
                <use fill="black" fill-opacity="1" filter="url(#filter-2)" xlink:href="#path-1"></use>
                <use fill="#FFFFFF" fill-rule="evenodd" xlink:href="#path-1"></use>
            </g>
            <g id="Icon/Wifi/Grey" transform="translate(15.000000, 19.000000)" fill="#9B9B9B" stroke="#9B9B9B">
                <g id="noun_1510573_cc">
                    <g id="Group" stroke-width="0.2">
                        <path d="M17.5000651,0.362928485 C11.2111023,0.362928485 4.92210698,2.68464576 0.125048121,7.32802909 C0.0187717177,7.42680408 -0.024036733,7.57347461 0.0131318526,7.71147719 C0.0503004383,7.84947977 0.161638341,7.95725101 0.304208086,7.99322892 C0.44677783,8.02920684 0.598302403,7.98776975 0.700346336,7.88489788 C9.98363605,-1.10099758 25.016368,-1.10099758 34.2996541,7.88489788 C34.4016981,7.98776946 34.5532225,8.02920633 34.6957921,7.99322839 C34.8383616,7.95725044 34.9496994,7.84947934 34.986868,7.71147694 C35.0240366,7.57347454 34.9812284,7.42680415 34.8749523,7.32802909 C30.0778971,2.68464576 23.7890279,0.362928485 17.5000651,0.362928485 Z" id="Shape"></path>
                        <path d="M17.5000651,4.53913515 C12.3146401,4.53913515 7.12913372,6.45330242 3.17622599,10.2815858 C3.07108615,10.3806319 3.02917499,10.5267973 3.06653663,10.664128 C3.10389827,10.8014587 3.21474621,10.9086851 3.3566464,10.9447595 C3.49854659,10.980834 3.64952173,10.9401693 3.75177657,10.8383324 C11.346589,3.48296 23.653411,3.48296 31.2482238,10.8383324 C31.3504787,10.9401693 31.5014538,10.980834 31.643354,10.9447595 C31.7852542,10.9086851 31.8961021,10.8014587 31.9334638,10.664128 C31.9708254,10.5267973 31.9289143,10.3806319 31.8237744,10.2815858 C27.8708663,6.45330242 22.685486,4.53913515 17.5000651,4.53913515 Z" id="Shape"></path>
                        <path d="M17.5000651,8.71558606 C13.4191913,8.71558606 9.3382564,10.2220497 6.22752965,13.2351818 C6.12206539,13.3341613 6.0799075,13.4804823 6.11723005,13.6180079 C6.1545526,13.7555335 6.26555992,13.862908 6.40766353,13.8989366 C6.54976715,13.9349653 6.70090037,13.8940534 6.80308023,13.791897 C12.7136116,8.06686242 22.2863884,8.06686242 28.1969198,13.791897 C28.2990996,13.8940534 28.4502329,13.9349653 28.5923365,13.8989366 C28.7344401,13.862908 28.8454474,13.7555335 28.88277,13.6180079 C28.9200925,13.4804823 28.8779346,13.3341613 28.7724703,13.2351818 C25.6617436,10.2220497 21.580939,8.71558606 17.5000651,8.71558606 Z" id="Shape"></path>
                        <path d="M17.5000651,12.8937939 C14.5238971,12.8937939 11.5476884,13.9907576 9.27909012,16.1846848 C9.17271066,16.2834019 9.1297908,16.4300815 9.16688903,16.5681347 C9.20398726,16.7061879 9.31530416,16.8140334 9.45789363,16.8500643 C9.6004831,16.8860952 9.75205466,16.8446789 9.85413198,16.7417939 C14.0802721,12.6548303 20.9197279,12.6548303 25.1458721,16.7417939 C25.2479494,16.8446789 25.399521,16.8860952 25.5421104,16.8500643 C25.6846999,16.8140334 25.7960168,16.7061879 25.833115,16.5681347 C25.8702133,16.4300815 25.8272934,16.2834019 25.720914,16.1846848 C23.4523116,13.9907576 20.4762331,12.8937939 17.5000651,12.8937939 Z" id="Shape"></path>
                        <path d="M17.5000651,17.070103 C15.628489,17.070103 13.7569209,17.7594576 12.3305203,19.1381273 C12.2251029,19.2370271 12.1828998,19.3832265 12.2200849,19.520696 C12.25727,19.6581655 12.3680764,19.7655856 12.5100387,19.8017885 C12.6520011,19.8379914 12.8031029,19.7973626 12.905436,19.6954727 C15.4473314,17.2387091 19.5527948,17.2387091 22.0946942,19.6954727 C22.1970273,19.7973626 22.3481292,19.8379914 22.4900915,19.8017885 C22.6320538,19.7655856 22.7428603,19.6581655 22.7800453,19.520696 C22.8172304,19.3832265 22.7750273,19.2370271 22.6696099,19.1381273 C21.2432052,17.7594576 19.3716372,17.070103 17.5000651,17.070103 Z" id="Shape"></path>
                        <path d="M17.5000651,21.0195424 C16.107993,21.0195424 14.9695163,22.1222576 14.9695163,23.4729576 C14.9695163,24.8204273 16.107993,25.9224333 17.5000651,25.9224333 C18.8954419,25.9224333 20.0346797,24.8204273 20.0346797,23.4729576 C20.0346797,22.1222576 18.8954419,21.0195424 17.5000651,21.0195424 Z M17.5000651,21.8071455 C18.4562244,21.8071455 19.2209988,22.5474364 19.2209988,23.4729576 C19.2209988,24.3937909 18.4562244,25.1348303 17.5000651,25.1348303 C16.5487366,25.1348303 15.7831971,24.3937909 15.7831971,23.4729576 C15.7831971,22.5474364 16.5487366,21.8071455 17.5000651,21.8071455 Z" id="Shape"></path>
                    </g>
                </g>
            </g>
        </g>
        <circle id="Verification-outline-Copy" stroke="#9B9B9B" stroke-width="5" opacity="0.64673913" cx="40" cy="40" r="32"></circle>
    </g>
</svg>