<?xml version="1.0" encoding="UTF-8"?>
<svg width="80px" height="80px" viewBox="0 0 80 80" version="1.1" xmlns="http://www.w3.org/2000/svg" xmlns:xlink="http://www.w3.org/1999/xlink">
    <!-- Generator: Sketch 49 (51002) - http://www.bohemiancoding.com/sketch -->
    <title>MicrochipIcon/Cloud/Blue-no checkmark</title>
    <desc>Created with Sketch.</desc>
    <defs>
        <path d="M0.906081817,19.9076775 L30.2864987,0.711945571 C30.9489801,0.279112574 31.804371,0.277594318 32.4683846,0.708072884 L62.0849073,19.9083986 C62.6536475,20.2771116 62.9969396,20.9087887 62.9969396,21.58659 L62.9969396,50.0835128 C62.9969396,50.7593233 62.6556473,51.3894257 62.0896113,51.7586452 L32.5911415,71.0001944 C31.9270857,71.4333512 31.0698539,71.4333512 30.4057981,71.0001944 L0.907328316,51.7586452 C0.341292287,51.3894257 1.41503055e-15,50.7593233 1.33226763e-15,50.0835128 L-3.99680289e-15,21.5819961 C-4.07950114e-15,20.9067137 0.340762812,20.2770293 0.906081817,19.9076775 Z" id="path-1"></path>
        <filter x="-11.1%" y="-7.0%" width="122.2%" height="119.5%" filterUnits="objectBoundingBox" id="filter-2">
            <feOffset dx="0" dy="2" in="SourceAlpha" result="shadowOffsetOuter1"></feOffset>
            <feGaussianBlur stdDeviation="2" in="shadowOffsetOuter1" result="shadowBlurOuter1"></feGaussianBlur>
            <feColorMatrix values="0 0 0 0 0   0 0 0 0 0   0 0 0 0 0  0 0 0 0.5 0" type="matrix" in="shadowBlurOuter1"></feColorMatrix>
        </filter>
        <rect id="path-3" x="0" y="0" width="22.7857143" height="15.1960784"></rect>
    </defs>
    <g id="MicrochipIcon/Cloud/Blue-no-checkmark" stroke="none" stroke-width="1" fill="none" fill-rule="evenodd">
        <g id="Group-6" transform="translate(4.000000, 4.000000)">
            <g id="hexagon" transform="translate(4.000000, 0.000000)">
                <g id="Path-3" transform="translate(31.498470, 35.856466) rotate(90.000000) translate(-31.498470, -35.856466) ">
                    <use fill="black" fill-opacity="1" filter="url(#filter-2)" xlink:href="#path-1"></use>
                    <use fill="#FFFFFF" fill-rule="evenodd" xlink:href="#path-1"></use>
                </g>
            </g>
            <polygon id="Path-3-Copy" stroke="#3473FF" stroke-width="5" opacity="0.64673913" transform="translate(36.000000, 36.000000) rotate(90.000000) translate(-36.000000, -36.000000) " points="4 20.5817274 35.8757646 0 68 20.5817274 68 51.3716251 36 72 4 51.3716251"></polygon>
            <g id="Icon/Cloud/Red-V2" transform="translate(18.000000, 20.000000)">
                <g id="Group-9" transform="translate(3.500000, 1.000000)">
                    <path d="M7.39795918,15.6519608 L7.39795918,11.5187157 C7.92494184,11.242039 8.28571429,10.6789963 8.28571429,10.0294118 C8.28571429,9.1062299 7.55703487,8.35784314 6.65816327,8.35784314 C5.75929166,8.35784314 5.03061224,9.1062299 5.03061224,10.0294118 C5.03061224,10.6789963 5.39138469,11.242039 5.91836735,11.5187157 L5.91836735,15.796061 C5.82037076,15.8012798 5.72171026,15.8039216 5.62244898,15.8039216 C2.51725615,15.8039216 0,13.2185855 0,10.0294118 C0,6.84023806 2.51725615,4.25490196 5.62244898,4.25490196 C6.36436175,4.25490196 7.07271165,4.40248809 7.72118407,4.67063406 C8.88099584,1.92246574 11.5458815,0 14.6479592,0 C17.7131441,0 20.3514741,1.87701018 21.5327168,4.572935 C22.1106078,4.36686566 22.7313484,4.25490196 23.377551,4.25490196 C26.4827438,4.25490196 29,6.84023806 29,10.0294118 C29,13.2185855 26.4827438,15.8039216 23.377551,15.8039216 C23.2782897,15.8039216 23.1796292,15.8012798 23.0816325,15.7960609 L23.0816327,11.3667549 C23.6086153,11.0900783 23.9693878,10.5270355 23.9693878,9.87745098 C23.9693878,8.95426912 23.2407083,8.20588235 22.3418367,8.20588235 C21.4429651,8.20588235 20.7142857,8.95426912 20.7142857,9.87745098 C20.7142857,10.5270355 21.0750582,11.0900783 21.6020408,11.3667549 L21.6020408,15.6519608 L15.2397959,15.6519608 L15.2397959,8.93538238 C15.7667786,8.65870571 16.127551,8.09566299 16.127551,7.44607843 C16.127551,6.52289657 15.3988716,5.7745098 14.5,5.7745098 C13.6011284,5.7745098 12.872449,6.52289657 12.872449,7.44607843 C12.872449,8.09566299 13.2332214,8.65870571 13.7602041,8.93538238 L13.7602041,15.6519608 L7.39795918,15.6519608 Z" id="Combined-Shape" stroke="#4C82FC"></path>
                    <g id="Combined-Shape" transform="translate(2.959184, 15.803922)">
                        <mask id="mask-4" fill="white">
                            <use xlink:href="#path-3"></use>
                        </mask>
                        <g id="Mask"></g>
                        <path d="M4.43877551,3.92486288 C5.80503345,4.32174123 6.80612245,5.61187879 6.80612245,7.14215686 C6.80612245,8.98852059 5.34876362,10.4852941 3.55102041,10.4852941 C1.75327719,10.4852941 0.295918367,8.98852059 0.295918367,7.14215686 C0.295918367,5.50336944 1.44401177,4.13998584 2.95918367,3.85414375 L2.95918367,-0.151960784 L2.07551022,-0.151960784 C1.93685124,-0.151960784 1.82016346,-0.246030637 1.78578487,-0.373832349 C-0.902626699,-0.806550688 -2.95918367,-3.19582832 -2.95918367,-6.07843137 C-2.95918367,-9.26760507 -0.441927522,-11.8529412 2.66326531,-11.8529412 C3.40517808,-11.8529412 4.11352798,-11.705355 4.7620004,-11.4372091 C5.92181217,-14.1853774 8.58669787,-16.1078431 11.6887755,-16.1078431 C14.7539604,-16.1078431 17.3922904,-14.230833 18.5735331,-11.5349081 C19.1514241,-11.7409775 19.7721648,-11.8529412 20.4183673,-11.8529412 C23.5235602,-11.8529412 26.0408163,-9.26760507 26.0408163,-6.07843137 C26.0408163,-2.88925767 23.5235602,-0.303921569 20.4183673,-0.303921569 C20.4053793,-0.303921569 20.3924015,-0.303966799 20.3794341,-0.304057115 C20.3284956,-0.214338103 20.2326429,-0.153457386 20.122449,-0.151987984 L20.122449,3.92486288 C21.4887069,4.32174123 22.4897959,5.61187879 22.4897959,7.14215686 C22.4897959,8.98852059 21.0324371,10.4852941 19.2346939,10.4852941 C17.4369507,10.4852941 15.9795918,8.98852059 15.9795918,7.14215686 C15.9795918,5.50336944 17.1276852,4.13998584 18.6428571,3.85414375 L18.6428571,-0.151960784 L12.2806122,-0.151960784 L12.2806122,7.98868003 C13.7219438,8.33270952 14.7959184,9.66009165 14.7959184,11.245098 C14.7959184,13.0914618 13.3385595,14.5882353 11.5408163,14.5882353 C9.74307311,14.5882353 8.28571429,13.0914618 8.28571429,11.245098 C8.28571429,9.66009165 9.35968889,8.33270952 10.8010204,7.98868003 L10.8010204,-0.151960784 L4.43877551,-0.151960784 L4.43877551,3.92486288 Z M2.95918367,-4.74108821 L2.95918367,-5.92647059 L4.43877551,-5.92647059 L4.43877551,-4.74108821 C4.96575817,-5.01776488 5.32653061,-5.5808076 5.32653061,-6.23039216 C5.32653061,-7.15357402 4.5978512,-7.90196078 3.69897959,-7.90196078 C2.80010798,-7.90196078 2.07142857,-7.15357402 2.07142857,-6.23039216 C2.07142857,-5.5808076 2.43220101,-5.01776488 2.95918367,-4.74108821 Z M11.5408163,12.7647059 C12.3579723,12.7647059 13.0204082,12.0843543 13.0204082,11.245098 C13.0204082,10.4058418 12.3579723,9.7254902 11.5408163,9.7254902 C10.7236603,9.7254902 10.0612245,10.4058418 10.0612245,11.245098 C10.0612245,12.0843543 10.7236603,12.7647059 11.5408163,12.7647059 Z M19.2346939,8.66176471 C20.0518499,8.66176471 20.7142857,7.9814131 20.7142857,7.14215686 C20.7142857,6.30290063 20.0518499,5.62254902 19.2346939,5.62254902 C18.4175379,5.62254902 17.755102,6.30290063 17.755102,7.14215686 C17.755102,7.9814131 18.4175379,8.66176471 19.2346939,8.66176471 Z M3.55102041,8.66176471 C4.36817642,8.66176471 5.03061224,7.9814131 5.03061224,7.14215686 C5.03061224,6.30290063 4.36817642,5.62254902 3.55102041,5.62254902 C2.7338644,5.62254902 2.07142857,6.30290063 2.07142857,7.14215686 C2.07142857,7.9814131 2.7338644,8.66176471 3.55102041,8.66176471 Z" stroke="#4285F4" mask="url(#mask-4)"></path>
                    </g>
                </g>
            </g>
        </g>
    </g>
</svg>