<?xml version="1.0" encoding="UTF-8"?>
<svg width="16px" height="16px" viewBox="0 0 16 16" version="1.1" xmlns="http://www.w3.org/2000/svg" xmlns:xlink="http://www.w3.org/1999/xlink">
    <!-- Generator: Sketch 49 (51002) - http://www.bohemiancoding.com/sketch -->
    <title>Microchipicons/utility/preview-Grey</title>
    <desc>Created with Sketch.</desc>
    <defs>
        <path d="M15.9308357,4.95384615 C14.4860711,2.03076923 11.4735831,0 8,0 C4.52641691,0 1.51392891,2.03076923 0.0691642651,4.95384615 C-0.023054755,5.13846154 -0.023054755,5.35384615 0.0691642651,5.50769231 C1.51392891,8.43076923 4.52641691,10.4615385 8,10.4615385 C11.4735831,10.4615385 14.4860711,8.43076923 15.9308357,5.50769231 C16.0230548,5.32307692 16.0230548,5.13846154 15.9308357,4.95384615 L15.9308357,4.95384615 Z M8,8.61538462 C6.12487992,8.61538462 4.61863593,7.10769231 4.61863593,5.23076923 C4.61863593,3.35384615 6.12487992,1.84615385 8,1.84615385 C9.87512008,1.84615385 11.3813641,3.35384615 11.3813641,5.23076923 C11.3813641,7.10769231 9.87512008,8.61538462 8,8.61538462 L8,8.61538462 Z M8,3.07692308 C6.80115274,3.07692308 5.84822286,4.03076923 5.84822286,5.23076923 C5.84822286,6.43076923 6.80115274,7.38461538 8,7.38461538 C9.19884726,7.38461538 10.1517771,6.43076923 10.1517771,5.23076923 C10.1517771,4.03076923 9.19884726,3.07692308 8,3.07692308 L8,3.07692308 Z" id="path-1"></path>
    </defs>
    <g id="Microchipicons/utility/preview-Grey" stroke="none" stroke-width="1" fill="none" fill-rule="evenodd">
        <g id="icons/utility/preview-copy" transform="translate(0.000000, 3.000000)">
            <mask id="mask-2" fill="white">
                <use xlink:href="#path-1"></use>
            </mask>
            <use id="Mask" fill="#000000" opacity="0.539999962" xlink:href="#path-1"></use>
        </g>
    </g>
</svg>